<?xml version="1.0" encoding="UTF-8"?>
<!DOCTYPE svg PUBLIC "-//W3C//DTD SVG 1.1//EN" "http://www.w3.org/Graphics/SVG/1.1/DTD/svg11.dtd">
<!-- Creator: CorelDRAW -->
<svg xmlns="http://www.w3.org/2000/svg" xml:space="preserve" width="12.2657mm" height="13.1317mm" version="1.1" style="shape-rendering:geometricPrecision; text-rendering:geometricPrecision; image-rendering:optimizeQuality; fill-rule:evenodd; clip-rule:evenodd"
viewBox="0 0 49.91 53.44"
 xmlns:xlink="http://www.w3.org/1999/xlink"
 xmlns:xodm="http://www.corel.com/coreldraw/odm/2003">
 <defs>
  <style type="text/css">
   <![CDATA[
    .fil0 {fill:#338BB7}
    .fil1 {fill:white}
   ]]>
  </style>
 </defs>
 <g id="Слой_x0020_1">
  <metadata id="CorelCorpID_0Corel-Layer"/>
  <g id="_1795112162688">
   <g>
    <path class="fil0" d="M5.8 0l21.08 0c3.19,0 5.8,2.61 5.8,5.8l0 12.6 -9.65 0c-4.48,0 -8.15,3.67 -8.15,8.15l0 6.13 -9.08 0c-3.19,0 -5.8,-2.61 -5.8,-5.8l0 -21.08c0,-3.19 2.61,-5.8 5.8,-5.8z"/>
    <polygon class="fil1" points="13.41,17.29 24.28,6.42 27.81,9.95 13.41,24.36 4.87,15.82 8.41,12.29 "/>
   </g>
   <rect class="fil0" x="17.23" y="20.75" width="32.69" height="32.69" rx="5.8" ry="5.8"/>
   <polygon class="fil1" points="30.64,38.99 41.5,28.12 45.04,31.66 30.64,46.07 22.1,37.53 25.64,34 "/>
  </g>
 </g>
</svg>
